<svg width="138" height="118" viewBox="0 0 138 118" fill="none" xmlns="http://www.w3.org/2000/svg">
<g clip-path="url(#clip0_3_272)">
<path d="M3.95525 42.1196L3.57211 42.5119L4.65513 43.6209L5.03828 43.2286L3.95525 42.1196Z" fill="#5754FE"/>
<path d="M4.24352 41.5553C4.59211 41.5553 4.87568 41.265 4.87568 40.908C4.87568 40.8008 4.84679 40.7009 4.80163 40.6121L4.31396 41.1115L4.04484 40.8359L4.53251 40.3366C4.44581 40.2903 4.34828 40.2607 4.24352 40.2607C3.89493 40.2607 3.61136 40.5511 3.61136 40.908C3.61136 40.9839 3.6258 41.056 3.64929 41.1226L3.31514 41.4647L2.99364 41.1355L3.12188 41.0042L2.86721 40.7434L3.25012 40.3514C3.03879 40.135 2.69562 40.135 2.4843 40.3514L1.84491 41.0061L2.09958 41.2668H1.59023L1.46199 41.3981L2.10138 42.0528L2.22962 41.9215V41.3981L2.4843 41.6589L2.61253 41.5276L2.93404 41.8568L1.59565 43.2272L1.97856 43.6193L4.034 41.5165C4.09903 41.5406 4.16947 41.5553 4.24352 41.5553Z" fill="black"/>
<path fill-rule="evenodd" clip-rule="evenodd" d="M130.576 118.003H7.43066C5.46154 118.003 3.57308 117.07 2.18072 115.409C0.788338 113.747 0.00611115 111.494 0.00611115 109.145V8.86099C0.00611115 6.51155 0.788338 4.25832 2.18072 2.59702C3.57308 0.935715 5.46154 0.00240326 7.43066 0.00240326H130.576C132.545 0.00240326 134.433 0.935715 135.826 2.59702C137.218 4.25832 138 6.51155 138 8.86099V109.145C138 111.494 137.218 113.747 135.826 115.409C134.433 117.07 132.545 118.003 130.576 118.003Z" fill="#5754FE"/>
<path d="M7.09391 8.06156H131.144C131.901 8.06156 132.627 8.42053 133.163 9.05948C133.698 9.69843 133.999 10.565 133.999 11.4686V110.575C133.999 111.023 133.925 111.466 133.782 111.879C133.638 112.293 133.428 112.668 133.163 112.985C132.898 113.301 132.583 113.552 132.236 113.723C131.89 113.894 131.519 113.982 131.144 113.982H7.09391C6.71892 113.982 6.34759 113.894 6.00114 113.723C5.65469 113.552 5.3399 113.301 5.07473 112.985C4.80957 112.668 4.59924 112.293 4.45573 111.879C4.31223 111.466 4.23837 111.023 4.23837 110.575V11.4686C4.23837 10.565 4.53922 9.69843 5.07473 9.05948C5.61025 8.42053 6.33657 8.06156 7.09391 8.06156Z" fill="white"/>
<path d="M129.894 5.77064C130.887 5.77064 131.692 4.70464 131.692 3.38967C131.692 2.07469 130.887 1.00869 129.894 1.00869C128.901 1.00869 128.096 2.07469 128.096 3.38967C128.096 4.70464 128.901 5.77064 129.894 5.77064Z" fill="white"/>
<path d="M119.727 6.06424C120.72 6.06424 121.525 4.99825 121.525 3.68327C121.525 2.3683 120.72 1.3023 119.727 1.3023C118.734 1.3023 117.929 2.3683 117.929 3.68327C117.929 4.99825 118.734 6.06424 119.727 6.06424Z" fill="white"/>
<path d="M124.806 6.1724C125.799 6.1724 126.604 5.1064 126.604 3.79142C126.604 2.47645 125.799 1.41046 124.806 1.41046C123.813 1.41046 123.008 2.47645 123.008 3.79142C123.008 5.1064 123.813 6.1724 124.806 6.1724Z" fill="white"/>
<path d="M9.51984 20.3617L91.5167 20.3054L9.51984 20.3617Z" fill="#5754FE"/>
<path d="M9.51984 20.3617L91.5167 20.3054" stroke="#5754FE" stroke-width="9.07951" stroke-linecap="round"/>
<path d="M114.816 106.546V108.282H119.407V106.546H114.816ZM114.816 96.1335V97.869H122.467V96.1335H114.816ZM122.467 110.017V108.282H128.588V106.546H122.467V104.811H120.937V110.018L122.467 110.017ZM117.877 99.6045V101.34H114.816V103.075H117.877V104.811H119.407V99.6043L117.877 99.6045ZM128.588 103.075V101.34H120.937V103.075H128.588ZM123.997 99.6045H125.527V97.869H128.588V96.1335H125.527V94.398H123.997V99.6045Z" fill="#5754FE"/>
<path d="M9.1787 40.3549L109.547 40.3077L9.1787 40.3549Z" fill="#5754FE"/>
<path d="M9.1787 40.3549L109.547 40.3077" stroke="#5754FE" stroke-width="9.19909" stroke-linecap="round"/>
<path d="M9.37813 60.346L93.9912 60.2914L9.37813 60.346Z" fill="#5754FE"/>
<path d="M9.37813 60.346L93.9912 60.2914" stroke="#5754FE" stroke-width="9.08364" stroke-linecap="round"/>
<path d="M9.82161 82.1873L115.417 82.1423L9.82161 82.1873Z" fill="#5754FE"/>
<path d="M9.82161 82.1873L115.417 82.1423" stroke="#5754FE" stroke-width="9.21723" stroke-linecap="round"/>
</g>
<defs>
<clipPath id="clip0_3_272">
<rect width="138" height="118" fill="white"/>
</clipPath>
</defs>
</svg>
