<svg width="162" height="162" viewBox="0 0 162 162" fill="none" xmlns="http://www.w3.org/2000/svg">
<path d="M80.9325 13.5C43.6725 13.5 13.5 43.74 13.5 81C13.5 118.26 43.6725 148.5 80.9325 148.5C118.26 148.5 148.5 118.26 148.5 81C148.5 43.74 118.26 13.5 80.9325 13.5ZM127.71 54H107.798C105.638 45.5625 102.533 37.4625 98.4825 29.97C110.903 34.2225 121.23 42.8625 127.71 54ZM81 27.27C86.6025 35.37 90.99 44.3475 93.8925 54H68.1075C71.01 44.3475 75.3975 35.37 81 27.27ZM28.755 94.5C27.675 90.18 27 85.6575 27 81C27 76.3425 27.675 71.82 28.755 67.5H51.57C51.03 71.955 50.625 76.41 50.625 81C50.625 85.59 51.03 90.045 51.57 94.5H28.755ZM34.29 108H54.2025C56.3625 116.438 59.4675 124.537 63.5175 132.03C51.0975 127.777 40.77 119.205 34.29 108ZM54.2025 54H34.29C40.77 42.795 51.0975 34.2225 63.5175 29.97C59.4675 37.4625 56.3625 45.5625 54.2025 54ZM81 134.73C75.3975 126.63 71.01 117.652 68.1075 108H93.8925C90.99 117.652 86.6025 126.63 81 134.73ZM96.795 94.5H65.205C64.5975 90.045 64.125 85.59 64.125 81C64.125 76.41 64.5975 71.8875 65.205 67.5H96.795C97.4025 71.8875 97.875 76.41 97.875 81C97.875 85.59 97.4025 90.045 96.795 94.5ZM98.4825 132.03C102.533 124.537 105.638 116.438 107.798 108H127.71C121.23 119.137 110.903 127.777 98.4825 132.03ZM110.43 94.5C110.97 90.045 111.375 85.59 111.375 81C111.375 76.41 110.97 71.955 110.43 67.5H133.245C134.325 71.82 135 76.3425 135 81C135 85.6575 134.325 90.18 133.245 94.5H110.43Z" fill="#5754FE"/>
</svg>
