<svg width="97" height="91" viewBox="0 0 97 91" fill="none" xmlns="http://www.w3.org/2000/svg">
<path d="M67.6249 51.1902L57.2328 61.5935L86.6078 91L97 80.5968L67.6249 51.1902Z" fill="#5754FE"/>
<path d="M75.4437 36.2297C84.8986 36.2297 92.59 28.5301 92.59 19.065C92.59 16.2206 91.8061 13.5723 90.5814 11.2183L77.3543 24.4596L70.0548 17.1524L83.282 3.91109C80.9305 2.68504 78.2851 1.90037 75.4437 1.90037C65.9887 1.90037 58.2974 9.59995 58.2974 19.065C58.2974 21.0757 58.6893 22.9884 59.3262 24.7539L50.2631 33.8266L41.543 25.0972L45.0213 21.6152L38.1138 14.7003L48.4995 4.30342C42.7677 -1.43447 33.4598 -1.43447 27.728 4.30342L10.3858 21.6642L17.2933 28.5791H3.47825L0 32.0611L17.3422 49.4219L20.8205 45.94V32.0611L27.728 38.976L31.2063 35.4941L39.9264 44.2235L3.62522 80.5635L14.011 90.9604L69.7609 35.1998C71.5245 35.8373 73.4351 36.2297 75.4437 36.2297Z" fill="black"/>
</svg>
